<?xml version="1.0" encoding="utf-8"?>
<!-- 75% scaled version of VCVButton_1.svg (13.5px x 13.5px) - Broken white pressed state -->
<svg version="1.0" xmlns="http://www.w3.org/2000/svg" xmlns:xlink="http://www.w3.org/1999/xlink"
     x="0px" y="0px" width="13.5px" height="13.5px" viewBox="0 0 13.5 13.5" xml:space="preserve">
<g transform="scale(0.75)">
<g id="g5959-5_63_" transform="translate(301.93513,1189.951)">
	<path id="path5961-3_63_" d="M-283.93512-1180.95044c0,4.97021-4.03055,8.99939-9.00067,8.99939
		c-4.96945,0-8.99933-4.02917-8.99933-8.99939c0-4.97217,4.02988-9.00061,8.99933-9.00061
		C-287.96567-1189.95105-283.93512-1185.92261-283.93512-1180.95044"/>
</g>
<g id="g5959-5_62_" transform="translate(301.93513,1189.951)">
	<linearGradient id="path5961-3_1_" gradientUnits="userSpaceOnUse" x1="-590.36511" y1="-2201.49536" x2="-574.14545" y2="-2201.49536" gradientTransform="matrix(-3.267949e-07 1 -1 -3.267949e-07 -2494.43066 -598.69647)">
		<stop  offset="0" style="stop-color:#B0ACA4"/>
		<stop  offset="1" style="stop-color:#807C74"/>
	</linearGradient>
	<path id="path5961-3_62_" fill="url(#path5961-3_1_)" d="M-301.04492-1180.95166
		c0-4.47852,3.6319-8.10925,8.11041-8.10925c4.47791,0,8.10922,3.63074,8.10919,8.10925c0,4.48035-3.63129,8.11047-8.10919,8.11047
		C-297.41302-1172.84119-301.04492-1176.47131-301.04492-1180.95166"/>
</g>
<g id="g5959-5_61_" transform="translate(301.93513,1189.951)">
	<path id="path5961-3_61_" fill="#A4A098" d="M-300.02133-1180.95154
		c0-3.91333,3.17349-7.08569,7.08673-7.08569c3.91272,0,7.08569,3.17236,7.08569,7.08569c0,3.91479-3.17297,7.08667-7.08569,7.08667
		C-296.84784-1173.86487-300.02133-1177.03674-300.02133-1180.95154"/>
</g>
<g id="g5959-5_60_" transform="translate(301.93513,1189.951)" opacity="0.29">
	<linearGradient id="path5961-3_2_" gradientUnits="userSpaceOnUse" x1="-437.42737" y1="-1971.07446" x2="-423.25491" y2="-1971.07446" gradientTransform="matrix(6.535898e-07 1 -1 6.535898e-07 -2264.00928 -750.60864)">
		<stop  offset="0" style="stop-color:#B4B0A8"/>
		<stop  offset="1" style="stop-color:#78746C"/>
	</linearGradient>
	<path id="path5961-3_60_" fill="url(#path5961-3_2_)" d="M-292.9346-1188.03723
		c3.9133,0,7.08569,3.17346,7.08569,7.08667c0,3.91272-3.17239,7.08569-7.08569,7.08569c-3.91486,0-7.08673-3.17297-7.08673-7.08569
		C-300.02133-1184.86377-296.84949-1188.03723-292.9346-1188.03723"/>
</g>
</g>
</svg>